<svg width="209" height="170" viewBox="0 0 209 170" fill="none" xmlns="http://www.w3.org/2000/svg">
<path d="M101.953 10L107.149 37H96.757L101.953 10Z" fill="#7B88C0"/>
<path d="M147.953 142.5L94.7031 165.45V119.55L147.953 142.5Z" fill="#7B88C0"/>
<path d="M30.9531 90C30.9531 62.3858 53.3389 40 80.9531 40H127.953C155.567 40 177.953 62.3858 177.953 90V97C177.953 124.614 155.561 147 127.947 147C111.937 147 96.9694 147 80.9595 147C53.3452 147 30.9531 124.614 30.9531 97V90Z" fill="#354693"/>
<rect x="48.9531" y="60" width="111" height="70" rx="30" fill="white"/>
<path d="M36.0628 69.1109C31.5253 69.14 27.1911 71.8624 24.0134 76.679C20.8358 81.4957 19.0752 88.012 19.1188 94.7946C19.1624 101.577 21.0067 108.07 24.246 112.846C27.4852 117.621 31.8541 120.288 36.3916 120.258L36.2272 94.6846L36.0628 69.1109Z" fill="#7B88C0"/>
<path d="M172.39 69.1109C176.928 69.14 181.262 71.8624 184.44 76.679C187.617 81.4957 189.378 88.012 189.334 94.7946C189.291 101.577 187.446 108.07 184.207 112.846C180.968 117.621 176.599 120.288 172.062 120.258L172.226 94.6846L172.39 69.1109Z" fill="#7B88C0"/>
<path d="M84.0168 39.4784C84.033 36.9646 85.9406 34.566 89.3201 32.8101C92.6996 31.0543 97.2741 30.085 102.037 30.1156C106.8 30.1463 111.362 31.1742 114.719 32.9734C118.075 34.7725 119.952 37.1955 119.936 39.7093L101.976 39.5938L84.0168 39.4784Z" fill="#7B88C0"/>
<path d="M132.953 84.5C132.953 89.7467 131.145 94 126.451 94C121.756 94 119.953 89.7467 119.953 84.5C119.953 79.2533 121.756 75 126.451 75C131.145 75 132.953 79.2533 132.953 84.5Z" fill="#354693"/>
<path d="M89.9531 84.5C89.9531 89.7467 88.1451 94 83.4507 94C78.7563 94 76.9531 89.7467 76.9531 84.5C76.9531 79.2533 78.7563 75 83.4507 75C88.1451 75 89.9531 79.2533 89.9531 84.5Z" fill="#354693"/>
<circle cx="101.953" cy="14" r="7" fill="#3A4DA1"/>
<path d="M116.478 104.442C116.46 107.174 115.313 109.788 113.288 111.707C111.264 113.627 108.528 114.695 105.682 114.676C102.837 114.658 100.115 113.555 98.1153 111.61C96.1156 109.664 95.0021 107.036 95.0197 104.304L105.749 104.373L116.478 104.442Z" fill="#354693"/>
</svg>
